<svg width="604" height="292" viewBox="0 0 604 292" fill="none" xmlns="http://www.w3.org/2000/svg">
<g clip-path="url(#clip0_1_1903)">
<g filter="url(#filter0_d_1_1903)">
<path d="M67.0733 225.123L67.0684 225.124L66.8975 225.136L66.7286 225.117L66.7247 225.116L66.0157 225.03C58.9305 224.064 52.0351 220.089 46.4678 213.718L45.9161 213.072C40.1894 206.246 36.3554 197.207 35.0792 187.528L34.9639 186.59L34.711 184.386H60.6651L56.3799 187.893C54.437 189.478 53.0638 190.931 52.1534 192.387L52.0421 192.564L52.1104 192.761C55.8018 203.497 63.5644 207.879 67.3926 209.434L67.5196 209.486L67.6534 209.456C71.461 208.597 76.0586 205.261 79.6924 200.576C83.335 195.88 86.0644 189.76 86.0645 183.261C86.0645 177.373 83.6549 173.125 79.8868 169.624C76.609 166.579 72.289 164.086 67.6378 161.551L65.626 160.462C59.0044 156.881 52.0199 153.101 46.7764 147.51C41.5539 141.943 38.049 134.566 38.4366 123.756C38.8559 112.458 43.3484 102.301 49.5821 94.8445C55.6282 87.6125 63.2741 82.9626 70.376 82.2243L71.0616 82.1648H71.0655L71.2364 82.1511L71.4053 82.1716H71.4102C78.7447 82.9651 85.4298 86.9061 90.7911 93.6286L91.3057 94.2878C96.4505 101.016 99.8376 109.794 101.118 119.733L101.235 120.699L101.488 122.901H75.5352L79.8204 119.394C81.7618 117.802 83.14 116.354 84.0508 114.892L84.1592 114.718L84.0948 114.523C81.2773 106.025 76.8248 100.39 70.7999 97.8767L70.6583 97.8171L70.5108 97.8591C66.9112 98.8858 62.9162 102.513 59.7725 107.293C56.6182 112.089 54.2618 118.133 54.0049 124.106C53.7166 130.124 55.9482 134.44 59.6006 137.974C63.1759 141.434 68.1265 144.154 73.3751 147.021V147.027L73.6036 147.151C80.0818 150.689 86.9199 154.428 92.2305 159.951C97.3579 165.283 101.069 172.289 101.593 182.414L101.633 183.404V183.407C101.992 193.139 98.2559 203.02 91.0606 211.315L90.3536 212.113C83.7442 219.408 75.1521 224.295 67.7823 225.062L67.0733 225.123Z" fill="white"/>
<path d="M67.0733 225.123L67.0684 225.124L66.8975 225.136L66.7286 225.117L66.7247 225.116L66.0157 225.03C58.9305 224.064 52.0351 220.089 46.4678 213.718L45.9161 213.072C40.1894 206.246 36.3554 197.207 35.0792 187.528L34.9639 186.59L34.711 184.386H60.6651L56.3799 187.893C54.437 189.478 53.0638 190.931 52.1534 192.387L52.0421 192.564L52.1104 192.761C55.8018 203.497 63.5644 207.879 67.3926 209.434L67.5196 209.486L67.6534 209.456C71.461 208.597 76.0586 205.261 79.6924 200.576C83.335 195.88 86.0644 189.76 86.0645 183.261C86.0645 177.373 83.6549 173.125 79.8868 169.624C76.609 166.579 72.289 164.086 67.6378 161.551L65.626 160.462C59.0044 156.881 52.0199 153.101 46.7764 147.51C41.5539 141.943 38.049 134.566 38.4366 123.756C38.8559 112.458 43.3484 102.301 49.5821 94.8445C55.6282 87.6125 63.2741 82.9626 70.376 82.2243L71.0616 82.1648H71.0655L71.2364 82.1511L71.4053 82.1716H71.4102C78.7447 82.9651 85.4298 86.9061 90.7911 93.6286L91.3057 94.2878C96.4505 101.016 99.8376 109.794 101.118 119.733L101.235 120.699L101.488 122.901H75.5352L79.8204 119.394C81.7618 117.802 83.14 116.354 84.0508 114.892L84.1592 114.718L84.0948 114.523C81.2773 106.025 76.8248 100.39 70.7999 97.8767L70.6583 97.8171L70.5108 97.8591C66.9112 98.8858 62.9162 102.513 59.7725 107.293C56.6182 112.089 54.2618 118.133 54.0049 124.106C53.7166 130.124 55.9482 134.44 59.6006 137.974C63.1759 141.434 68.1265 144.154 73.3751 147.021V147.027L73.6036 147.151C80.0818 150.689 86.9199 154.428 92.2305 159.951C97.3579 165.283 101.069 172.289 101.593 182.414L101.633 183.404V183.407C101.992 193.139 98.2559 203.02 91.0606 211.315L90.3536 212.113C83.7442 219.408 75.1521 224.295 67.7823 225.062L67.0733 225.123Z" fill="url(#paint0_linear_1_1903)" fill-opacity="0.56"/>
<path d="M67.0733 225.123L67.0684 225.124L66.8975 225.136L66.7286 225.117L66.7247 225.116L66.0157 225.03C58.9305 224.064 52.0351 220.089 46.4678 213.718L45.9161 213.072C40.1894 206.246 36.3554 197.207 35.0792 187.528L34.9639 186.59L34.711 184.386H60.6651L56.3799 187.893C54.437 189.478 53.0638 190.931 52.1534 192.387L52.0421 192.564L52.1104 192.761C55.8018 203.497 63.5644 207.879 67.3926 209.434L67.5196 209.486L67.6534 209.456C71.461 208.597 76.0586 205.261 79.6924 200.576C83.335 195.88 86.0644 189.76 86.0645 183.261C86.0645 177.373 83.6549 173.125 79.8868 169.624C76.609 166.579 72.289 164.086 67.6378 161.551L65.626 160.462C59.0044 156.881 52.0199 153.101 46.7764 147.51C41.5539 141.943 38.049 134.566 38.4366 123.756C38.8559 112.458 43.3484 102.301 49.5821 94.8445C55.6282 87.6125 63.2741 82.9626 70.376 82.2243L71.0616 82.1648H71.0655L71.2364 82.1511L71.4053 82.1716H71.4102C78.7447 82.9651 85.4298 86.9061 90.7911 93.6286L91.3057 94.2878C96.4505 101.016 99.8376 109.794 101.118 119.733L101.235 120.699L101.488 122.901H75.5352L79.8204 119.394C81.7618 117.802 83.14 116.354 84.0508 114.892L84.1592 114.718L84.0948 114.523C81.2773 106.025 76.8248 100.39 70.7999 97.8767L70.6583 97.8171L70.5108 97.8591C66.9112 98.8858 62.9162 102.513 59.7725 107.293C56.6182 112.089 54.2618 118.133 54.0049 124.106C53.7166 130.124 55.9482 134.44 59.6006 137.974C63.1759 141.434 68.1265 144.154 73.3751 147.021V147.027L73.6036 147.151C80.0818 150.689 86.9199 154.428 92.2305 159.951C97.3579 165.283 101.069 172.289 101.593 182.414L101.633 183.404V183.407C101.992 193.139 98.2559 203.02 91.0606 211.315L90.3536 212.113C83.7442 219.408 75.1521 224.295 67.7823 225.062L67.0733 225.123Z" stroke="url(#paint1_linear_1_1903)" stroke-width="0.875061"/>
<path d="M549.583 225.123L549.578 225.124L549.407 225.136L549.238 225.117L549.234 225.116L548.525 225.03C541.44 224.064 534.544 220.089 528.977 213.718L528.425 213.072C522.699 206.246 518.865 197.207 517.588 187.528L517.473 186.59L517.22 184.386H543.174L538.889 187.893C536.946 189.478 535.573 190.931 534.663 192.387L534.551 192.564L534.62 192.761C538.311 203.497 546.074 207.879 549.902 209.434L550.03 209.486L550.164 209.456C553.971 208.597 558.568 205.261 562.202 200.576C565.844 195.88 568.574 189.76 568.574 183.261C568.574 177.373 566.164 173.125 562.396 169.624C559.118 166.578 554.798 164.086 550.147 161.551L548.135 160.462C541.514 156.881 534.529 153.1 529.286 147.51C524.063 141.943 520.558 134.566 520.946 123.756C521.365 112.458 525.858 102.301 532.091 94.8445C538.137 87.6125 545.783 82.9626 552.885 82.2243L553.571 82.1648H553.575L553.746 82.1511L553.915 82.1716H553.919C561.254 82.9651 567.939 86.9061 573.3 93.6286L573.815 94.2878C578.96 101.016 582.347 109.794 583.627 119.733L583.745 120.699L583.998 122.901H558.044L562.33 119.394C564.271 117.802 565.649 116.354 566.56 114.892L566.668 114.718L566.604 114.523C563.787 106.024 559.334 100.39 553.309 97.8767L553.167 97.8171L553.02 97.8591C549.42 98.8858 545.425 102.513 542.282 107.293C539.127 112.089 536.771 118.133 536.514 124.106C536.226 130.124 538.457 134.44 542.11 137.974C545.685 141.434 550.636 144.154 555.884 147.021V147.027L556.113 147.151C562.591 150.689 569.429 154.428 574.74 159.951C579.867 165.283 583.579 172.289 584.102 182.414L584.142 183.404V183.407C584.501 193.139 580.765 203.02 573.57 211.315L572.863 212.113C566.253 219.408 557.661 224.295 550.292 225.062L549.583 225.123Z" fill="white"/>
<path d="M549.583 225.123L549.578 225.124L549.407 225.136L549.238 225.117L549.234 225.116L548.525 225.03C541.44 224.064 534.544 220.089 528.977 213.718L528.425 213.072C522.699 206.246 518.865 197.207 517.588 187.528L517.473 186.59L517.22 184.386H543.174L538.889 187.893C536.946 189.478 535.573 190.931 534.663 192.387L534.551 192.564L534.62 192.761C538.311 203.497 546.074 207.879 549.902 209.434L550.03 209.486L550.164 209.456C553.971 208.597 558.568 205.261 562.202 200.576C565.844 195.88 568.574 189.76 568.574 183.261C568.574 177.373 566.164 173.125 562.396 169.624C559.118 166.578 554.798 164.086 550.147 161.551L548.135 160.462C541.514 156.881 534.529 153.1 529.286 147.51C524.063 141.943 520.558 134.566 520.946 123.756C521.365 112.458 525.858 102.301 532.091 94.8445C538.137 87.6125 545.783 82.9626 552.885 82.2243L553.571 82.1648H553.575L553.746 82.1511L553.915 82.1716H553.919C561.254 82.9651 567.939 86.9061 573.3 93.6286L573.815 94.2878C578.96 101.016 582.347 109.794 583.627 119.733L583.745 120.699L583.998 122.901H558.044L562.33 119.394C564.271 117.802 565.649 116.354 566.56 114.892L566.668 114.718L566.604 114.523C563.787 106.024 559.334 100.39 553.309 97.8767L553.167 97.8171L553.02 97.8591C549.42 98.8858 545.425 102.513 542.282 107.293C539.127 112.089 536.771 118.133 536.514 124.106C536.226 130.124 538.457 134.44 542.11 137.974C545.685 141.434 550.636 144.154 555.884 147.021V147.027L556.113 147.151C562.591 150.689 569.429 154.428 574.74 159.951C579.867 165.283 583.579 172.289 584.102 182.414L584.142 183.404V183.407C584.501 193.139 580.765 203.02 573.57 211.315L572.863 212.113C566.253 219.408 557.661 224.295 550.292 225.062L549.583 225.123Z" fill="url(#paint2_linear_1_1903)" fill-opacity="0.56"/>
<path d="M549.583 225.123L549.578 225.124L549.407 225.136L549.238 225.117L549.234 225.116L548.525 225.03C541.44 224.064 534.544 220.089 528.977 213.718L528.425 213.072C522.699 206.246 518.865 197.207 517.588 187.528L517.473 186.59L517.22 184.386H543.174L538.889 187.893C536.946 189.478 535.573 190.931 534.663 192.387L534.551 192.564L534.62 192.761C538.311 203.497 546.074 207.879 549.902 209.434L550.03 209.486L550.164 209.456C553.971 208.597 558.568 205.261 562.202 200.576C565.844 195.88 568.574 189.76 568.574 183.261C568.574 177.373 566.164 173.125 562.396 169.624C559.118 166.578 554.798 164.086 550.147 161.551L548.135 160.462C541.514 156.881 534.529 153.1 529.286 147.51C524.063 141.943 520.558 134.566 520.946 123.756C521.365 112.458 525.858 102.301 532.091 94.8445C538.137 87.6125 545.783 82.9626 552.885 82.2243L553.571 82.1648H553.575L553.746 82.1511L553.915 82.1716H553.919C561.254 82.9651 567.939 86.9061 573.3 93.6286L573.815 94.2878C578.96 101.016 582.347 109.794 583.627 119.733L583.745 120.699L583.998 122.901H558.044L562.33 119.394C564.271 117.802 565.649 116.354 566.56 114.892L566.668 114.718L566.604 114.523C563.787 106.024 559.334 100.39 553.309 97.8767L553.167 97.8171L553.02 97.8591C549.42 98.8858 545.425 102.513 542.282 107.293C539.127 112.089 536.771 118.133 536.514 124.106C536.226 130.124 538.457 134.44 542.11 137.974C545.685 141.434 550.636 144.154 555.884 147.021V147.027L556.113 147.151C562.591 150.689 569.429 154.428 574.74 159.951C579.867 165.283 583.579 172.289 584.102 182.414L584.142 183.404V183.407C584.501 193.139 580.765 203.02 573.57 211.315L572.863 212.113C566.253 219.408 557.661 224.295 550.292 225.062L549.583 225.123Z" stroke="url(#paint3_linear_1_1903)" stroke-width="0.875061"/>
<path d="M128.498 95.6815C139.809 95.6816 149.712 98.8284 157.219 104.764L157.939 105.348C164.717 110.984 169.042 118.719 170.189 127.201L170.291 128.024C172.185 145.202 160.715 165.664 130.629 173.053L130.296 173.135V212.044C130.296 215.466 132.005 218.498 135.385 221.306L135.717 221.577L139.719 224.78H115.94V108.418C115.94 104.996 114.235 101.96 110.854 99.1552L110.522 98.8847L106.517 95.6815H128.498ZM130.296 157.564H130.669L130.728 158.002H131.171V157.891C144.447 154.067 156.536 143.794 155.562 129.932L155.506 129.263C154.997 124.14 152.595 119.673 148.573 116.316L148.178 115.995C143.815 112.526 137.819 110.524 130.758 110.116L130.296 110.09V157.564Z" fill="white"/>
<path d="M128.498 95.6815C139.809 95.6816 149.712 98.8284 157.219 104.764L157.939 105.348C164.717 110.984 169.042 118.719 170.189 127.201L170.291 128.024C172.185 145.202 160.715 165.664 130.629 173.053L130.296 173.135V212.044C130.296 215.466 132.005 218.498 135.385 221.306L135.717 221.577L139.719 224.78H115.94V108.418C115.94 104.996 114.235 101.96 110.854 99.1552L110.522 98.8847L106.517 95.6815H128.498ZM130.296 157.564H130.669L130.728 158.002H131.171V157.891C144.447 154.067 156.536 143.794 155.562 129.932L155.506 129.263C154.997 124.14 152.595 119.673 148.573 116.316L148.178 115.995C143.815 112.526 137.819 110.524 130.758 110.116L130.296 110.09V157.564Z" fill="url(#paint4_linear_1_1903)" fill-opacity="0.56"/>
<path d="M128.498 95.6815C139.809 95.6816 149.712 98.8284 157.219 104.764L157.939 105.348C164.717 110.984 169.042 118.719 170.189 127.201L170.291 128.024C172.185 145.202 160.715 165.664 130.629 173.053L130.296 173.135V212.044C130.296 215.466 132.005 218.498 135.385 221.306L135.717 221.577L139.719 224.78H115.94V108.418C115.94 104.996 114.235 101.96 110.854 99.1552L110.522 98.8847L106.517 95.6815H128.498ZM130.296 157.564H130.669L130.728 158.002H131.171V157.891C144.447 154.067 156.536 143.794 155.562 129.932L155.506 129.263C154.997 124.14 152.595 119.673 148.573 116.316L148.178 115.995C143.815 112.526 137.819 110.524 130.758 110.116L130.296 110.09V157.564Z" stroke="url(#paint5_linear_1_1903)" stroke-width="0.875061"/>
<path d="M265.794 104.297C275.39 104.297 283.56 106.516 290.115 110.875L290.744 111.304C296.589 115.378 300.765 121.04 302.853 127.715L303.048 128.365C307.1 142.338 301.545 157.353 289.118 166.66L288.64 167.018L289.127 167.366C296.982 172.97 301.045 184.608 301.045 202.248V213.22H301.061C301.196 216.14 302.685 218.756 305.503 221.186L306.113 221.694H306.114L309.78 224.626H287.721V200.576C287.721 195.66 287.182 188.661 284.612 183.052L284.357 182.514C283.103 179.954 281.56 178.021 279.69 176.73C277.815 175.436 275.637 174.804 273.151 174.804C271.32 174.804 269.511 175.065 267.757 175.577L267.442 175.668V212.783C267.442 215.879 268.937 218.636 271.895 221.186L272.506 221.694L276.173 224.626H254.113V116.141C254.113 113.044 252.619 110.287 249.66 107.737L249.049 107.23L245.382 104.297H265.794ZM267.442 162.41H267.944L268.001 162.393C280.505 158.898 291.986 149.256 291.07 136.202L291.018 135.577L290.965 135.116C290.391 130.521 288.176 126.513 284.538 123.48L284.169 123.18C280.094 119.94 274.491 118.073 267.904 117.694L267.442 117.666V162.41Z" fill="white"/>
<path d="M265.794 104.297C275.39 104.297 283.56 106.516 290.115 110.875L290.744 111.304C296.589 115.378 300.765 121.04 302.853 127.715L303.048 128.365C307.1 142.338 301.545 157.353 289.118 166.66L288.64 167.018L289.127 167.366C296.982 172.97 301.045 184.608 301.045 202.248V213.22H301.061C301.196 216.14 302.685 218.756 305.503 221.186L306.113 221.694H306.114L309.78 224.626H287.721V200.576C287.721 195.66 287.182 188.661 284.612 183.052L284.357 182.514C283.103 179.954 281.56 178.021 279.69 176.73C277.815 175.436 275.637 174.804 273.151 174.804C271.32 174.804 269.511 175.065 267.757 175.577L267.442 175.668V212.783C267.442 215.879 268.937 218.636 271.895 221.186L272.506 221.694L276.173 224.626H254.113V116.141C254.113 113.044 252.619 110.287 249.66 107.737L249.049 107.23L245.382 104.297H265.794ZM267.442 162.41H267.944L268.001 162.393C280.505 158.898 291.986 149.256 291.07 136.202L291.018 135.577L290.965 135.116C290.391 130.521 288.176 126.513 284.538 123.48L284.169 123.18C280.094 119.94 274.491 118.073 267.904 117.694L267.442 117.666V162.41Z" fill="url(#paint6_linear_1_1903)" fill-opacity="0.56"/>
<path d="M265.794 104.297C275.39 104.297 283.56 106.516 290.115 110.875L290.744 111.304C296.589 115.378 300.765 121.04 302.853 127.715L303.048 128.365C307.1 142.338 301.545 157.353 289.118 166.66L288.64 167.018L289.127 167.366C296.982 172.97 301.045 184.608 301.045 202.248V213.22H301.061C301.196 216.14 302.685 218.756 305.503 221.186L306.113 221.694H306.114L309.78 224.626H287.721V200.576C287.721 195.66 287.182 188.661 284.612 183.052L284.357 182.514C283.103 179.954 281.56 178.021 279.69 176.73C277.815 175.436 275.637 174.804 273.151 174.804C271.32 174.804 269.511 175.065 267.757 175.577L267.442 175.668V212.783C267.442 215.879 268.937 218.636 271.895 221.186L272.506 221.694L276.173 224.626H254.113V116.141C254.113 113.044 252.619 110.287 249.66 107.737L249.049 107.23L245.382 104.297H265.794ZM267.442 162.41H267.944L268.001 162.393C280.505 158.898 291.986 149.256 291.07 136.202L291.018 135.577L290.965 135.116C290.391 130.521 288.176 126.513 284.538 123.48L284.169 123.18C280.094 119.94 274.491 118.073 267.904 117.694L267.442 117.666V162.41Z" stroke="url(#paint7_linear_1_1903)" stroke-width="0.875061"/>
<path d="M341.056 8.86523H341.057C341.803 11.3731 342.959 13.9072 344.395 15.8242C345.818 17.7248 347.59 19.1122 349.578 19.1123H351.852V24.9199L350.027 25.2842C348.1 25.6682 346.509 26.8629 345.405 28.3428C344.304 29.8201 343.661 31.6164 343.661 33.2539V62.916H402.516V87.0889L398.512 82.3789C395.694 79.062 393.072 77.4961 390.046 77.4961H343.908L344.051 78.043C344.938 81.4641 347.211 84.9007 349.317 87.2529L349.736 87.708L351.962 90.0752L349.774 91.0137L349.581 91.0957L349.525 91.2969C349.143 92.6459 348.833 95.5703 348.608 100.033C348.382 104.516 348.24 110.596 348.212 118.292C348.156 133.603 348.547 155.322 349.609 183.6H349.591L349.609 184.053C350.493 207.543 351.644 229.781 352.789 246.724C353.362 255.195 353.932 262.345 354.468 267.667C354.736 270.327 354.996 272.535 355.242 274.224C355.456 275.688 355.665 276.794 355.87 277.467L355.957 277.729L356.579 279.396L338.869 291.471L321.157 279.396L321.78 277.729V277.728C322.014 277.101 322.252 275.896 322.496 274.223C322.743 272.533 323.003 270.326 323.271 267.665C323.806 262.343 324.377 255.192 324.949 246.721C325.951 231.896 326.958 213.018 327.786 192.795L328.13 184.053C329.204 155.554 329.599 133.685 329.543 118.292C329.515 110.596 329.374 104.516 329.148 100.033C328.923 95.5703 328.612 92.6459 328.231 91.2969L328.174 91.0957L327.982 91.0137L325.792 90.0752L328.02 87.708C330.234 85.3583 332.758 81.6921 333.704 78.043L333.847 77.4961H287.709C284.872 77.4961 282.394 78.8726 279.771 81.7773L279.243 82.3789L275.239 87.0889V62.916H334.094V33.2539C334.094 31.6445 333.436 29.8465 332.329 28.3633C331.29 26.9706 329.829 25.8175 328.082 25.3652L327.729 25.2842L325.904 24.9199V19.1123H328.177C330.166 19.1122 331.937 17.7249 333.362 15.8242C334.708 14.027 335.809 11.688 336.555 9.33594L336.699 8.86523L338.877 1.53613L341.056 8.86523Z" fill="white"/>
<path d="M341.056 8.86523H341.057C341.803 11.3731 342.959 13.9072 344.395 15.8242C345.818 17.7248 347.59 19.1122 349.578 19.1123H351.852V24.9199L350.027 25.2842C348.1 25.6682 346.509 26.8629 345.405 28.3428C344.304 29.8201 343.661 31.6164 343.661 33.2539V62.916H402.516V87.0889L398.512 82.3789C395.694 79.062 393.072 77.4961 390.046 77.4961H343.908L344.051 78.043C344.938 81.4641 347.211 84.9007 349.317 87.2529L349.736 87.708L351.962 90.0752L349.774 91.0137L349.581 91.0957L349.525 91.2969C349.143 92.6459 348.833 95.5703 348.608 100.033C348.382 104.516 348.24 110.596 348.212 118.292C348.156 133.603 348.547 155.322 349.609 183.6H349.591L349.609 184.053C350.493 207.543 351.644 229.781 352.789 246.724C353.362 255.195 353.932 262.345 354.468 267.667C354.736 270.327 354.996 272.535 355.242 274.224C355.456 275.688 355.665 276.794 355.87 277.467L355.957 277.729L356.579 279.396L338.869 291.471L321.157 279.396L321.78 277.729V277.728C322.014 277.101 322.252 275.896 322.496 274.223C322.743 272.533 323.003 270.326 323.271 267.665C323.806 262.343 324.377 255.192 324.949 246.721C325.951 231.896 326.958 213.018 327.786 192.795L328.13 184.053C329.204 155.554 329.599 133.685 329.543 118.292C329.515 110.596 329.374 104.516 329.148 100.033C328.923 95.5703 328.612 92.6459 328.231 91.2969L328.174 91.0957L327.982 91.0137L325.792 90.0752L328.02 87.708C330.234 85.3583 332.758 81.6921 333.704 78.043L333.847 77.4961H287.709C284.872 77.4961 282.394 78.8726 279.771 81.7773L279.243 82.3789L275.239 87.0889V62.916H334.094V33.2539C334.094 31.6445 333.436 29.8465 332.329 28.3633C331.29 26.9706 329.829 25.8175 328.082 25.3652L327.729 25.2842L325.904 24.9199V19.1123H328.177C330.166 19.1122 331.937 17.7249 333.362 15.8242C334.708 14.027 335.809 11.688 336.555 9.33594L336.699 8.86523L338.877 1.53613L341.056 8.86523Z" fill="url(#paint8_linear_1_1903)" fill-opacity="0.56"/>
<path d="M341.056 8.86523H341.057C341.803 11.3731 342.959 13.9072 344.395 15.8242C345.818 17.7248 347.59 19.1122 349.578 19.1123H351.852V24.9199L350.027 25.2842C348.1 25.6682 346.509 26.8629 345.405 28.3428C344.304 29.8201 343.661 31.6164 343.661 33.2539V62.916H402.516V87.0889L398.512 82.3789C395.694 79.062 393.072 77.4961 390.046 77.4961H343.908L344.051 78.043C344.938 81.4641 347.211 84.9007 349.317 87.2529L349.736 87.708L351.962 90.0752L349.774 91.0137L349.581 91.0957L349.525 91.2969C349.143 92.6459 348.833 95.5703 348.608 100.033C348.382 104.516 348.24 110.596 348.212 118.292C348.156 133.603 348.547 155.322 349.609 183.6H349.591L349.609 184.053C350.493 207.543 351.644 229.781 352.789 246.724C353.362 255.195 353.932 262.345 354.468 267.667C354.736 270.327 354.996 272.535 355.242 274.224C355.456 275.688 355.665 276.794 355.87 277.467L355.957 277.729L356.579 279.396L338.869 291.471L321.157 279.396L321.78 277.729V277.728C322.014 277.101 322.252 275.896 322.496 274.223C322.743 272.533 323.003 270.326 323.271 267.665C323.806 262.343 324.377 255.192 324.949 246.721C325.951 231.896 326.958 213.018 327.786 192.795L328.13 184.053C329.204 155.554 329.599 133.685 329.543 118.292C329.515 110.596 329.374 104.516 329.148 100.033C328.923 95.5703 328.612 92.6459 328.231 91.2969L328.174 91.0957L327.982 91.0137L325.792 90.0752L328.02 87.708C330.234 85.3583 332.758 81.6921 333.704 78.043L333.847 77.4961H287.709C284.872 77.4961 282.394 78.8726 279.771 81.7773L279.243 82.3789L275.239 87.0889V62.916H334.094V33.2539C334.094 31.6445 333.436 29.8465 332.329 28.3633C331.29 26.9706 329.829 25.8175 328.082 25.3652L327.729 25.2842L325.904 24.9199V19.1123H328.177C330.166 19.1122 331.937 17.7249 333.362 15.8242C334.708 14.027 335.809 11.688 336.555 9.33594L336.699 8.86523L338.877 1.53613L341.056 8.86523Z" stroke="url(#paint9_linear_1_1903)" stroke-width="0.875061"/>
<path d="M462.283 95.6857L486.454 173.128L487.308 172.998V108.422C487.308 105 485.599 101.968 482.218 99.1603L481.885 98.8889L477.884 95.6857H501.663V212.044C501.663 215.467 503.373 218.498 506.754 221.306L507.086 221.576V221.577L511.088 224.78H487.606L463.614 147.884L462.759 148.014V212.048C462.759 215.47 464.464 218.506 467.845 221.311L468.177 221.581L472.182 224.784H448.404V108.422C448.404 105.004 446.695 101.968 443.314 99.1603L442.981 98.8889L438.98 95.6857H462.283Z" fill="white"/>
<path d="M462.283 95.6857L486.454 173.128L487.308 172.998V108.422C487.308 105 485.599 101.968 482.218 99.1603L481.885 98.8889L477.884 95.6857H501.663V212.044C501.663 215.467 503.373 218.498 506.754 221.306L507.086 221.576V221.577L511.088 224.78H487.606L463.614 147.884L462.759 148.014V212.048C462.759 215.47 464.464 218.506 467.845 221.311L468.177 221.581L472.182 224.784H448.404V108.422C448.404 105.004 446.695 101.968 443.314 99.1603L442.981 98.8889L438.98 95.6857H462.283Z" fill="url(#paint10_linear_1_1903)" fill-opacity="0.56"/>
<path d="M462.283 95.6857L486.454 173.128L487.308 172.998V108.422C487.308 105 485.599 101.968 482.218 99.1603L481.885 98.8889L477.884 95.6857H501.663V212.044C501.663 215.467 503.373 218.498 506.754 221.306L507.086 221.576V221.577L511.088 224.78H487.606L463.614 147.884L462.759 148.014V212.048C462.759 215.47 464.464 218.506 467.845 221.311L468.177 221.581L472.182 224.784H448.404V108.422C448.404 105.004 446.695 101.968 443.314 99.1603L442.981 98.8889L438.98 95.6857H462.283Z" stroke="url(#paint11_linear_1_1903)" stroke-width="0.875061"/>
<path d="M205.214 236.085L213.537 254.627H210.342L208.865 251.34L208.749 251.082H196.877L196.761 251.341L195.287 254.627H192.094L200.421 236.085H205.214ZM202.416 238.75L198.075 248.421L198.47 248.599V249.038H207.832L207.556 248.421L203.215 238.75L202.815 237.861L202.416 238.75Z" fill="white"/>
<path d="M205.214 236.085L213.537 254.627H210.342L208.865 251.34L208.749 251.082H196.877L196.761 251.341L195.287 254.627H192.094L200.421 236.085H205.214ZM202.416 238.75L198.075 248.421L198.47 248.599V249.038H207.832L207.556 248.421L203.215 238.75L202.815 237.861L202.416 238.75Z" fill="url(#paint12_linear_1_1903)" fill-opacity="0.56"/>
<path d="M205.214 236.085L213.537 254.627H210.342L208.865 251.34L208.749 251.082H196.877L196.761 251.341L195.287 254.627H192.094L200.421 236.085H205.214ZM202.416 238.75L198.075 248.421L198.47 248.599V249.038H207.832L207.556 248.421L203.215 238.75L202.815 237.861L202.416 238.75Z" stroke="url(#paint13_linear_1_1903)" stroke-width="0.875061"/>
<path d="M255.982 236.089C259.355 236.089 262.091 238.808 262.091 242.136C262.091 243.87 261.354 245.492 260.049 246.644L259.78 246.868L258.806 247.635L258.639 247.766V248.15L258.744 248.272L259.553 249.215V249.214C260.874 250.758 261.747 252.655 262.058 254.639H259.15C259.039 254.01 258.863 253.401 258.616 252.821L258.483 252.525C257.376 250.16 255.123 248.497 252.672 248.253L252.435 248.235H252.432C252.274 248.226 252.05 248.22 251.79 248.214L250.934 248.201L250.207 248.188H247.012V254.635H244.109V236.152H244.334V236.089H255.982ZM247.008 245.764H255.982C257.996 245.764 259.643 244.137 259.643 242.132C259.643 240.127 257.996 238.5 255.982 238.5H247.008V245.764Z" fill="white"/>
<path d="M255.982 236.089C259.355 236.089 262.091 238.808 262.091 242.136C262.091 243.87 261.354 245.492 260.049 246.644L259.78 246.868L258.806 247.635L258.639 247.766V248.15L258.744 248.272L259.553 249.215V249.214C260.874 250.758 261.747 252.655 262.058 254.639H259.15C259.039 254.01 258.863 253.401 258.616 252.821L258.483 252.525C257.376 250.16 255.123 248.497 252.672 248.253L252.435 248.235H252.432C252.274 248.226 252.05 248.22 251.79 248.214L250.934 248.201L250.207 248.188H247.012V254.635H244.109V236.152H244.334V236.089H255.982ZM247.008 245.764H255.982C257.996 245.764 259.643 244.137 259.643 242.132C259.643 240.127 257.996 238.5 255.982 238.5H247.008V245.764Z" fill="url(#paint14_linear_1_1903)" fill-opacity="0.56"/>
<path d="M255.982 236.089C259.355 236.089 262.091 238.808 262.091 242.136C262.091 243.87 261.354 245.492 260.049 246.644L259.78 246.868L258.806 247.635L258.639 247.766V248.15L258.744 248.272L259.553 249.215V249.214C260.874 250.758 261.747 252.655 262.058 254.639H259.15C259.039 254.01 258.863 253.401 258.616 252.821L258.483 252.525C257.376 250.16 255.123 248.497 252.672 248.253L252.435 248.235H252.432C252.274 248.226 252.05 248.22 251.79 248.214L250.934 248.201L250.207 248.188H247.012V254.635H244.109V236.152H244.334V236.089H255.982ZM247.008 245.764H255.982C257.996 245.764 259.643 244.137 259.643 242.132C259.643 240.127 257.996 238.5 255.982 238.5H247.008V245.764Z" stroke="url(#paint15_linear_1_1903)" stroke-width="0.875061"/>
<path d="M307.893 236.085V238.105H295.349V244.321H306.634V246.395H295.349V252.608H307.893V254.631H292.433V236.085H307.893Z" fill="white"/>
<path d="M307.893 236.085V238.105H295.349V244.321H306.634V246.395H295.349V252.608H307.893V254.631H292.433V236.085H307.893Z" fill="url(#paint16_linear_1_1903)" fill-opacity="0.56"/>
<path d="M307.893 236.085V238.105H295.349V244.321H306.634V246.395H295.349V252.608H307.893V254.631H292.433V236.085H307.893Z" stroke="url(#paint17_linear_1_1903)" stroke-width="0.875061"/>
<path d="M210.487 152.218V152.219C211.335 153.26 212.047 154.194 212.711 155.089L213.364 155.972C214.612 157.665 215.726 159.176 217.343 160.885L218.069 161.631L219.125 162.687L218.171 163.841H218.17C217.315 164.875 216.535 165.697 215.818 166.421L215.122 167.116C213.541 168.685 212.25 169.969 210.655 172.832L210.331 173.427L209.063 175.814L207.525 173.592L207.524 173.591C206.669 172.36 206.012 171.282 205.428 170.326L205.3 170.117H205.296C203.877 167.794 202.917 166.294 200.259 164.487H200.258L198.762 163.469L199.916 162.076L199.917 162.075C200.764 161.046 201.529 160.228 202.228 159.509L202.906 158.818C204.466 157.238 205.737 155.946 207.431 153.054L207.776 152.453L208.958 150.351L210.487 152.218Z" fill="white"/>
<path d="M210.487 152.218V152.219C211.335 153.26 212.047 154.194 212.711 155.089L213.364 155.972C214.612 157.665 215.726 159.176 217.343 160.885L218.069 161.631L219.125 162.687L218.171 163.841H218.17C217.315 164.875 216.535 165.697 215.818 166.421L215.122 167.116C213.541 168.685 212.25 169.969 210.655 172.832L210.331 173.427L209.063 175.814L207.525 173.592L207.524 173.591C206.669 172.36 206.012 171.282 205.428 170.326L205.3 170.117H205.296C203.877 167.794 202.917 166.294 200.259 164.487H200.258L198.762 163.469L199.916 162.076L199.917 162.075C200.764 161.046 201.529 160.228 202.228 159.509L202.906 158.818C204.466 157.238 205.737 155.946 207.431 153.054L207.776 152.453L208.958 150.351L210.487 152.218Z" fill="url(#paint18_linear_1_1903)" fill-opacity="0.56"/>
<path d="M210.487 152.218V152.219C211.335 153.26 212.047 154.194 212.711 155.089L213.364 155.972C214.612 157.665 215.726 159.176 217.343 160.885L218.069 161.631L219.125 162.687L218.171 163.841H218.17C217.315 164.875 216.535 165.697 215.818 166.421L215.122 167.116C213.541 168.685 212.25 169.969 210.655 172.832L210.331 173.427L209.063 175.814L207.525 173.592L207.524 173.591C206.669 172.36 206.012 171.282 205.428 170.326L205.3 170.117H205.296C203.877 167.794 202.917 166.294 200.259 164.487H200.258L198.762 163.469L199.916 162.076L199.917 162.075C200.764 161.046 201.529 160.228 202.228 159.509L202.906 158.818C204.466 157.238 205.737 155.946 207.431 153.054L207.776 152.453L208.958 150.351L210.487 152.218Z" stroke="url(#paint19_linear_1_1903)" stroke-width="0.875061"/>
<path d="M209.59 102.667L209.927 102.748L209.928 102.744C217.598 104.689 223.689 110.611 227.887 120.009C232.148 129.547 234.438 142.624 234.438 158.603V222.949H212.379L216.046 220.018C219.41 217.33 221.11 214.409 221.11 211.105V156.935C221.11 149.596 220.35 141.186 218.529 133.774C216.713 126.384 213.819 119.893 209.482 116.497L209.213 116.286L208.943 116.497C204.544 119.939 201.609 126.557 199.766 134.102C197.918 141.669 197.148 150.264 197.148 157.769V222.949H175.089L178.755 220.018C182.119 217.326 183.82 214.409 183.82 211.105V158.606C183.82 142.918 186.183 129.854 190.5 120.249C194.816 110.646 201.062 104.545 208.819 102.667L208.818 102.666L209.204 102.574L209.59 102.667Z" fill="white"/>
<path d="M209.59 102.667L209.927 102.748L209.928 102.744C217.598 104.689 223.689 110.611 227.887 120.009C232.148 129.547 234.438 142.624 234.438 158.603V222.949H212.379L216.046 220.018C219.41 217.33 221.11 214.409 221.11 211.105V156.935C221.11 149.596 220.35 141.186 218.529 133.774C216.713 126.384 213.819 119.893 209.482 116.497L209.213 116.286L208.943 116.497C204.544 119.939 201.609 126.557 199.766 134.102C197.918 141.669 197.148 150.264 197.148 157.769V222.949H175.089L178.755 220.018C182.119 217.326 183.82 214.409 183.82 211.105V158.606C183.82 142.918 186.183 129.854 190.5 120.249C194.816 110.646 201.062 104.545 208.819 102.667L208.818 102.666L209.204 102.574L209.59 102.667Z" fill="url(#paint20_linear_1_1903)" fill-opacity="0.56"/>
<path d="M209.59 102.667L209.927 102.748L209.928 102.744C217.598 104.689 223.689 110.611 227.887 120.009C232.148 129.547 234.438 142.624 234.438 158.603V222.949H212.379L216.046 220.018C219.41 217.33 221.11 214.409 221.11 211.105V156.935C221.11 149.596 220.35 141.186 218.529 133.774C216.713 126.384 213.819 119.893 209.482 116.497L209.213 116.286L208.943 116.497C204.544 119.939 201.609 126.557 199.766 134.102C197.918 141.669 197.148 150.264 197.148 157.769V222.949H175.089L178.755 220.018C182.119 217.326 183.82 214.409 183.82 211.105V158.606C183.82 142.918 186.183 129.854 190.5 120.249C194.816 110.646 201.062 104.545 208.819 102.667L208.818 102.666L209.204 102.574L209.59 102.667Z" stroke="url(#paint21_linear_1_1903)" stroke-width="0.875061"/>
<path d="M398.918 102.674V102.675C406.675 104.553 412.922 110.654 417.238 120.257C421.555 129.862 423.918 142.927 423.918 158.615V211.114C423.918 214.211 425.412 216.968 428.37 219.518L428.981 220.026L432.659 222.966H410.589V157.785C410.589 150.284 409.819 141.694 407.973 134.129C406.133 126.587 403.201 119.969 398.807 116.523L398.533 116.307L398.262 116.527C395.414 118.834 392.51 123.222 390.318 129.869C388.123 136.524 386.632 145.476 386.632 156.951V211.123C386.632 214.22 388.126 216.976 391.085 219.527L391.695 220.034H391.696L395.362 222.966H373.303V158.62C373.303 142.639 375.594 129.562 379.854 120.024C383.98 110.789 389.933 104.908 397.417 102.862L398.146 102.676V102.675L398.532 102.583L398.918 102.674Z" fill="white"/>
<path d="M398.918 102.674V102.675C406.675 104.553 412.922 110.654 417.238 120.257C421.555 129.862 423.918 142.927 423.918 158.615V211.114C423.918 214.211 425.412 216.968 428.37 219.518L428.981 220.026L432.659 222.966H410.589V157.785C410.589 150.284 409.819 141.694 407.973 134.129C406.133 126.587 403.201 119.969 398.807 116.523L398.533 116.307L398.262 116.527C395.414 118.834 392.51 123.222 390.318 129.869C388.123 136.524 386.632 145.476 386.632 156.951V211.123C386.632 214.22 388.126 216.976 391.085 219.527L391.695 220.034H391.696L395.362 222.966H373.303V158.62C373.303 142.639 375.594 129.562 379.854 120.024C383.98 110.789 389.933 104.908 397.417 102.862L398.146 102.676V102.675L398.532 102.583L398.918 102.674Z" fill="url(#paint22_linear_1_1903)" fill-opacity="0.56"/>
<path d="M398.918 102.674V102.675C406.675 104.553 412.922 110.654 417.238 120.257C421.555 129.862 423.918 142.927 423.918 158.615V211.114C423.918 214.211 425.412 216.968 428.37 219.518L428.981 220.026L432.659 222.966H410.589V157.785C410.589 150.284 409.819 141.694 407.973 134.129C406.133 126.587 403.201 119.969 398.807 116.523L398.533 116.307L398.262 116.527C395.414 118.834 392.51 123.222 390.318 129.869C388.123 136.524 386.632 145.476 386.632 156.951V211.123C386.632 214.22 388.126 216.976 391.085 219.527L391.695 220.034H391.696L395.362 222.966H373.303V158.62C373.303 142.639 375.594 129.562 379.854 120.024C383.98 110.789 389.933 104.908 397.417 102.862L398.146 102.676V102.675L398.532 102.583L398.918 102.674Z" stroke="url(#paint23_linear_1_1903)" stroke-width="0.875061"/>
<path d="M399.961 152.453C401.552 155.278 402.757 156.678 404.105 158.073H404.096L404.826 158.817C405.593 159.598 406.439 160.456 407.399 161.578L407.817 162.075V162.076L408.97 163.469L407.474 164.487C405.079 166.115 404.063 167.494 402.847 169.45L402.309 170.326C401.871 171.042 401.392 171.826 400.818 172.694L400.212 173.592L398.673 175.814L397.405 173.427L397.082 172.832C395.699 170.35 394.545 169.055 393.233 167.732L392.614 167.116L391.919 166.423C391.322 165.821 390.68 165.15 389.988 164.343L389.567 163.842L389.566 163.841L388.61 162.687L389.668 161.631L389.667 161.63C391.191 160.11 392.274 158.776 393.321 157.388L394.373 155.972C395.018 155.096 395.675 154.201 396.442 153.226L397.249 152.22L398.777 150.351L399.961 152.453Z" fill="white"/>
<path d="M399.961 152.453C401.552 155.278 402.757 156.678 404.105 158.073H404.096L404.826 158.817C405.593 159.598 406.439 160.456 407.399 161.578L407.817 162.075V162.076L408.97 163.469L407.474 164.487C405.079 166.115 404.063 167.494 402.847 169.45L402.309 170.326C401.871 171.042 401.392 171.826 400.818 172.694L400.212 173.592L398.673 175.814L397.405 173.427L397.082 172.832C395.699 170.35 394.545 169.055 393.233 167.732L392.614 167.116L391.919 166.423C391.322 165.821 390.68 165.15 389.988 164.343L389.567 163.842L389.566 163.841L388.61 162.687L389.668 161.631L389.667 161.63C391.191 160.11 392.274 158.776 393.321 157.388L394.373 155.972C395.018 155.096 395.675 154.201 396.442 153.226L397.249 152.22L398.777 150.351L399.961 152.453Z" fill="url(#paint24_linear_1_1903)" fill-opacity="0.56"/>
<path d="M399.961 152.453C401.552 155.278 402.757 156.678 404.105 158.073H404.096L404.826 158.817C405.593 159.598 406.439 160.456 407.399 161.578L407.817 162.075V162.076L408.97 163.469L407.474 164.487C405.079 166.115 404.063 167.494 402.847 169.45L402.309 170.326C401.871 171.042 401.392 171.826 400.818 172.694L400.212 173.592L398.673 175.814L397.405 173.427L397.082 172.832C395.699 170.35 394.545 169.055 393.233 167.732L392.614 167.116L391.919 166.423C391.322 165.821 390.68 165.15 389.988 164.343L389.567 163.842L389.566 163.841L388.61 162.687L389.668 161.631L389.667 161.63C391.191 160.11 392.274 158.776 393.321 157.388L394.373 155.972C395.018 155.096 395.675 154.201 396.442 153.226L397.249 152.22L398.777 150.351L399.961 152.453Z" stroke="url(#paint25_linear_1_1903)" stroke-width="0.875061"/>
<path d="M24.3447 150.235C25.6544 151.835 26.6786 153.223 27.6709 154.57V154.571C29.3191 156.812 30.7628 158.765 33.1025 161.105L33.2305 161.234H33.2354L34.376 162.375L33.2334 163.757C32.2405 164.958 31.3356 165.91 30.5059 166.747L29.7002 167.549C27.8733 169.36 26.3874 170.84 24.5488 174.142L24.1758 174.828L22.6572 177.687L20.8145 175.026C20.0729 173.955 19.4586 172.987 18.9131 172.104L18.3887 171.248C16.7711 168.601 15.7222 166.889 13.0029 164.919L12.4355 164.521L10.6426 163.302L12.0225 161.633C13.0072 160.441 13.8915 159.492 14.6992 158.661L15.4824 157.863C17.2852 156.036 18.7475 154.549 20.7012 151.211L21.0986 150.518L22.5146 147.999L24.3447 150.235Z" fill="white"/>
<path d="M24.3447 150.235C25.6544 151.835 26.6786 153.223 27.6709 154.57V154.571C29.3191 156.812 30.7628 158.765 33.1025 161.105L33.2305 161.234H33.2354L34.376 162.375L33.2334 163.757C32.2405 164.958 31.3356 165.91 30.5059 166.747L29.7002 167.549C27.8733 169.36 26.3874 170.84 24.5488 174.142L24.1758 174.828L22.6572 177.687L20.8145 175.026C20.0729 173.955 19.4586 172.987 18.9131 172.104L18.3887 171.248C16.7711 168.601 15.7222 166.889 13.0029 164.919L12.4355 164.521L10.6426 163.302L12.0225 161.633C13.0072 160.441 13.8915 159.492 14.6992 158.661L15.4824 157.863C17.2852 156.036 18.7475 154.549 20.7012 151.211L21.0986 150.518L22.5146 147.999L24.3447 150.235Z" fill="url(#paint26_linear_1_1903)" fill-opacity="0.56"/>
<path d="M24.3447 150.235C25.6544 151.835 26.6786 153.223 27.6709 154.57V154.571C29.3191 156.812 30.7628 158.765 33.1025 161.105L33.2305 161.234H33.2354L34.376 162.375L33.2334 163.757C32.2405 164.958 31.3356 165.91 30.5059 166.747L29.7002 167.549C27.8733 169.36 26.3874 170.84 24.5488 174.142L24.1758 174.828L22.6572 177.687L20.8145 175.026C20.0729 173.955 19.4586 172.987 18.9131 172.104L18.3887 171.248C16.7711 168.601 15.7222 166.889 13.0029 164.919L12.4355 164.521L10.6426 163.302L12.0225 161.633C13.0072 160.441 13.8915 159.492 14.6992 158.661L15.4824 157.863C17.2852 156.036 18.7475 154.549 20.7012 151.211L21.0986 150.518L22.5146 147.999L24.3447 150.235Z" stroke="url(#paint27_linear_1_1903)" stroke-width="0.875061"/>
<path d="M593.178 133.137C594.487 134.737 595.512 136.125 596.504 137.472V137.473C598.152 139.714 599.596 141.667 601.936 144.007L602.063 144.136H602.068L603.209 145.277L602.066 146.659C601.073 147.86 600.169 148.812 599.339 149.649L598.533 150.451C596.706 152.262 595.22 153.742 593.382 157.044L593.009 157.73L591.49 160.589L589.647 157.928C588.906 156.857 588.292 155.889 587.746 155.006L587.222 154.15C585.604 151.503 584.555 149.791 581.836 147.821L581.269 147.423L579.476 146.204L580.855 144.535C581.84 143.343 582.725 142.394 583.532 141.563L584.315 140.765C586.118 138.938 587.58 137.451 589.534 134.113L589.932 133.42L591.348 130.901L593.178 133.137Z" fill="white"/>
<path d="M593.178 133.137C594.487 134.737 595.512 136.125 596.504 137.472V137.473C598.152 139.714 599.596 141.667 601.936 144.007L602.063 144.136H602.068L603.209 145.277L602.066 146.659C601.073 147.86 600.169 148.812 599.339 149.649L598.533 150.451C596.706 152.262 595.22 153.742 593.382 157.044L593.009 157.73L591.49 160.589L589.647 157.928C588.906 156.857 588.292 155.889 587.746 155.006L587.222 154.15C585.604 151.503 584.555 149.791 581.836 147.821L581.269 147.423L579.476 146.204L580.855 144.535C581.84 143.343 582.725 142.394 583.532 141.563L584.315 140.765C586.118 138.938 587.58 137.451 589.534 134.113L589.932 133.42L591.348 130.901L593.178 133.137Z" fill="url(#paint28_linear_1_1903)" fill-opacity="0.56"/>
<path d="M593.178 133.137C594.487 134.737 595.512 136.125 596.504 137.472V137.473C598.152 139.714 599.596 141.667 601.936 144.007L602.063 144.136H602.068L603.209 145.277L602.066 146.659C601.073 147.86 600.169 148.812 599.339 149.649L598.533 150.451C596.706 152.262 595.22 153.742 593.382 157.044L593.009 157.73L591.49 160.589L589.647 157.928C588.906 156.857 588.292 155.889 587.746 155.006L587.222 154.15C585.604 151.503 584.555 149.791 581.836 147.821L581.269 147.423L579.476 146.204L580.855 144.535C581.84 143.343 582.725 142.394 583.532 141.563L584.315 140.765C586.118 138.938 587.58 137.451 589.534 134.113L589.932 133.42L591.348 130.901L593.178 133.137Z" stroke="url(#paint29_linear_1_1903)" stroke-width="0.875061"/>
<path d="M386.331 235.956C389.254 235.956 391.623 238.308 391.623 241.194C391.623 241.78 391.526 242.356 391.332 242.908L391.242 243.143L390.896 243.994L390.769 244.309L391.042 244.511L391.788 245.061V245.06C393.122 246.047 393.921 247.621 393.921 249.26C393.921 252.146 391.552 254.498 388.629 254.498H376.222V235.956H386.331ZM378.662 252.091H388.633C390.204 252.091 391.489 250.827 391.489 249.26C391.489 247.692 390.204 246.428 388.633 246.427H378.662V252.091ZM378.662 244.021H386.331C387.902 244.021 389.186 242.758 389.187 241.19C389.187 239.622 387.903 238.358 386.331 238.358H378.662V244.021Z" fill="white"/>
<path d="M386.331 235.956C389.254 235.956 391.623 238.308 391.623 241.194C391.623 241.78 391.526 242.356 391.332 242.908L391.242 243.143L390.896 243.994L390.769 244.309L391.042 244.511L391.788 245.061V245.06C393.122 246.047 393.921 247.621 393.921 249.26C393.921 252.146 391.552 254.498 388.629 254.498H376.222V235.956H386.331ZM378.662 252.091H388.633C390.204 252.091 391.489 250.827 391.489 249.26C391.489 247.692 390.204 246.428 388.633 246.427H378.662V252.091ZM378.662 244.021H386.331C387.902 244.021 389.186 242.758 389.187 241.19C389.187 239.622 387.903 238.358 386.331 238.358H378.662V244.021Z" fill="url(#paint30_linear_1_1903)" fill-opacity="0.56"/>
<path d="M386.331 235.956C389.254 235.956 391.623 238.308 391.623 241.194C391.623 241.78 391.526 242.356 391.332 242.908L391.242 243.143L390.896 243.994L390.769 244.309L391.042 244.511L391.788 245.061V245.06C393.122 246.047 393.921 247.621 393.921 249.26C393.921 252.146 391.552 254.498 388.629 254.498H376.222V235.956H386.331ZM378.662 252.091H388.633C390.204 252.091 391.489 250.827 391.489 249.26C391.489 247.692 390.204 246.428 388.633 246.427H378.662V252.091ZM378.662 244.021H386.331C387.902 244.021 389.186 242.758 389.187 241.19C389.187 239.622 387.903 238.358 386.331 238.358H378.662V244.021Z" stroke="url(#paint31_linear_1_1903)" stroke-width="0.875061"/>
<path d="M435.349 235.956L443.676 254.498H440.48L439.004 251.211L438.888 250.953H427.016L426.9 251.211L425.424 254.498H422.228L430.556 235.956H435.349ZM432.559 238.621L428.214 248.292L427.936 248.909H437.98L437.703 248.292L433.357 238.621L432.958 237.733L432.559 238.621Z" fill="white"/>
<path d="M435.349 235.956L443.676 254.498H440.48L439.004 251.211L438.888 250.953H427.016L426.9 251.211L425.424 254.498H422.228L430.556 235.956H435.349ZM432.559 238.621L428.214 248.292L427.936 248.909H437.98L437.703 248.292L433.357 238.621L432.958 237.733L432.559 238.621Z" fill="url(#paint32_linear_1_1903)" fill-opacity="0.56"/>
<path d="M435.349 235.956L443.676 254.498H440.48L439.004 251.211L438.888 250.953H427.016L426.9 251.211L425.424 254.498H422.228L430.556 235.956H435.349ZM432.559 238.621L428.214 248.292L427.936 248.909H437.98L437.703 248.292L433.357 238.621L432.958 237.733L432.559 238.621Z" stroke="url(#paint33_linear_1_1903)" stroke-width="0.875061"/>
<path d="M478.31 235.952H488.802V238.834H478.31C476.467 238.834 474.961 240.318 474.961 242.153V248.296C474.961 250.131 476.467 251.615 478.31 251.615H488.802V254.498H478.31C474.849 254.498 472.042 251.712 472.041 248.296V242.153C472.041 238.737 474.852 235.952 478.31 235.952Z" fill="white"/>
<path d="M478.31 235.952H488.802V238.834H478.31C476.467 238.834 474.961 240.318 474.961 242.153V248.296C474.961 250.131 476.467 251.615 478.31 251.615H488.802V254.498H478.31C474.849 254.498 472.042 251.712 472.041 248.296V242.153C472.041 238.737 474.852 235.952 478.31 235.952Z" fill="url(#paint34_linear_1_1903)" fill-opacity="0.56"/>
<path d="M478.31 235.952H488.802V238.834H478.31C476.467 238.834 474.961 240.318 474.961 242.153V248.296C474.961 250.131 476.467 251.615 478.31 251.615H488.802V254.498H478.31C474.849 254.498 472.042 251.712 472.041 248.296V242.153C472.041 238.737 474.852 235.952 478.31 235.952Z" stroke="url(#paint35_linear_1_1903)" stroke-width="0.875061"/>
<path d="M522.03 235.956V243.792H525.516C527.586 243.792 529.565 242.995 531.13 241.548L531.437 241.25C532.837 239.83 533.756 237.972 534.082 235.956H537.021C536.637 238.996 535.19 241.791 532.962 243.78L532.731 243.98L531.655 244.893L531.262 245.227L531.655 245.56L532.731 246.473L532.732 246.474C535.091 248.469 536.626 251.356 537.022 254.498H534.082C533.778 252.612 532.957 250.871 531.71 249.492L531.437 249.203C529.829 247.572 527.724 246.666 525.516 246.666H522.03V254.498H519.119V235.956H522.03Z" fill="white"/>
<path d="M522.03 235.956V243.792H525.516C527.586 243.792 529.565 242.995 531.13 241.548L531.437 241.25C532.837 239.83 533.756 237.972 534.082 235.956H537.021C536.637 238.996 535.19 241.791 532.962 243.78L532.731 243.98L531.655 244.893L531.262 245.227L531.655 245.56L532.731 246.473L532.732 246.474C535.091 248.469 536.626 251.356 537.022 254.498H534.082C533.778 252.612 532.957 250.871 531.71 249.492L531.437 249.203C529.829 247.572 527.724 246.666 525.516 246.666H522.03V254.498H519.119V235.956H522.03Z" fill="url(#paint36_linear_1_1903)" fill-opacity="0.56"/>
<path d="M522.03 235.956V243.792H525.516C527.586 243.792 529.565 242.995 531.13 241.548L531.437 241.25C532.837 239.83 533.756 237.972 534.082 235.956H537.021C536.637 238.996 535.19 241.791 532.962 243.78L532.731 243.98L531.655 244.893L531.262 245.227L531.655 245.56L532.731 246.473L532.732 246.474C535.091 248.469 536.626 251.356 537.022 254.498H534.082C533.778 252.612 532.957 250.871 531.71 249.492L531.437 249.203C529.829 247.572 527.724 246.666 525.516 246.666H522.03V254.498H519.119V235.956H522.03Z" stroke="url(#paint37_linear_1_1903)" stroke-width="0.875061"/>
</g>
</g>
<defs>
<filter id="filter0_d_1_1903" x="10" y="0" width="593.8" height="294" filterUnits="userSpaceOnUse" color-interpolation-filters="sRGB">
<feFlood flood-opacity="0" result="BackgroundImageFix"/>
<feColorMatrix in="SourceAlpha" type="matrix" values="0 0 0 0 0 0 0 0 0 0 0 0 0 0 0 0 0 0 127 0" result="hardAlpha"/>
<feOffset dy="2"/>
<feComposite in2="hardAlpha" operator="out"/>
<feColorMatrix type="matrix" values="0 0 0 0 0 0 0 0 0 0 0 0 0 0 0 0 0 0 1 0"/>
<feBlend mode="normal" in2="BackgroundImageFix" result="effect1_dropShadow_1_1903"/>
<feBlend mode="normal" in="SourceGraphic" in2="effect1_dropShadow_1_1903" result="shape"/>
</filter>
<linearGradient id="paint0_linear_1_1903" x1="68.1576" y1="81.7117" x2="68.1576" y2="294.126" gradientUnits="userSpaceOnUse">
<stop stop-color="white"/>
<stop offset="0.713985"/>
</linearGradient>
<linearGradient id="paint1_linear_1_1903" x1="68.1576" y1="81.7117" x2="68.1576" y2="225.576" gradientUnits="userSpaceOnUse">
<stop stop-color="white"/>
<stop offset="1" stop-color="white"/>
</linearGradient>
<linearGradient id="paint2_linear_1_1903" x1="550.667" y1="81.7117" x2="550.667" y2="294.126" gradientUnits="userSpaceOnUse">
<stop stop-color="white"/>
<stop offset="0.713985"/>
</linearGradient>
<linearGradient id="paint3_linear_1_1903" x1="550.667" y1="81.7117" x2="550.667" y2="225.576" gradientUnits="userSpaceOnUse">
<stop stop-color="white"/>
<stop offset="1" stop-color="white"/>
</linearGradient>
<linearGradient id="paint4_linear_1_1903" x1="138.098" y1="95.244" x2="138.098" y2="287.149" gradientUnits="userSpaceOnUse">
<stop stop-color="white"/>
<stop offset="0.713985"/>
</linearGradient>
<linearGradient id="paint5_linear_1_1903" x1="138.098" y1="95.244" x2="138.098" y2="225.218" gradientUnits="userSpaceOnUse">
<stop stop-color="white"/>
<stop offset="1" stop-color="white"/>
</linearGradient>
<linearGradient id="paint6_linear_1_1903" x1="277.581" y1="103.86" x2="277.581" y2="282.816" gradientUnits="userSpaceOnUse">
<stop stop-color="white"/>
<stop offset="0.713985"/>
</linearGradient>
<linearGradient id="paint7_linear_1_1903" x1="277.581" y1="103.86" x2="277.581" y2="225.064" gradientUnits="userSpaceOnUse">
<stop stop-color="white"/>
<stop offset="1" stop-color="white"/>
</linearGradient>
<linearGradient id="paint8_linear_1_1903" x1="338.878" y1="0" x2="338.878" y2="431.135" gradientUnits="userSpaceOnUse">
<stop stop-color="white"/>
<stop offset="0.713985"/>
</linearGradient>
<linearGradient id="paint9_linear_1_1903" x1="338.878" y1="0" x2="338.878" y2="292" gradientUnits="userSpaceOnUse">
<stop stop-color="white"/>
<stop offset="1" stop-color="white"/>
</linearGradient>
<linearGradient id="paint10_linear_1_1903" x1="475.034" y1="95.2482" x2="475.034" y2="287.153" gradientUnits="userSpaceOnUse">
<stop stop-color="white"/>
<stop offset="0.713985"/>
</linearGradient>
<linearGradient id="paint11_linear_1_1903" x1="475.034" y1="95.2482" x2="475.034" y2="225.222" gradientUnits="userSpaceOnUse">
<stop stop-color="white"/>
<stop offset="1" stop-color="white"/>
</linearGradient>
<linearGradient id="paint12_linear_1_1903" x1="202.815" y1="235.648" x2="202.815" y2="264.316" gradientUnits="userSpaceOnUse">
<stop stop-color="white"/>
<stop offset="0.713985"/>
</linearGradient>
<linearGradient id="paint13_linear_1_1903" x1="202.815" y1="235.648" x2="202.815" y2="255.064" gradientUnits="userSpaceOnUse">
<stop stop-color="white"/>
<stop offset="1" stop-color="white"/>
</linearGradient>
<linearGradient id="paint14_linear_1_1903" x1="253.115" y1="235.652" x2="253.115" y2="264.332" gradientUnits="userSpaceOnUse">
<stop stop-color="white"/>
<stop offset="0.713985"/>
</linearGradient>
<linearGradient id="paint15_linear_1_1903" x1="253.115" y1="235.652" x2="253.115" y2="255.077" gradientUnits="userSpaceOnUse">
<stop stop-color="white"/>
<stop offset="1" stop-color="white"/>
</linearGradient>
<linearGradient id="paint16_linear_1_1903" x1="300.163" y1="235.648" x2="300.163" y2="264.322" gradientUnits="userSpaceOnUse">
<stop stop-color="white"/>
<stop offset="0.713985"/>
</linearGradient>
<linearGradient id="paint17_linear_1_1903" x1="300.163" y1="235.648" x2="300.163" y2="255.068" gradientUnits="userSpaceOnUse">
<stop stop-color="white"/>
<stop offset="1" stop-color="white"/>
</linearGradient>
<linearGradient id="paint18_linear_1_1903" x1="208.918" y1="149.578" x2="208.918" y2="189.557" gradientUnits="userSpaceOnUse">
<stop stop-color="white"/>
<stop offset="0.713985"/>
</linearGradient>
<linearGradient id="paint19_linear_1_1903" x1="208.918" y1="149.578" x2="208.918" y2="176.655" gradientUnits="userSpaceOnUse">
<stop stop-color="white"/>
<stop offset="1" stop-color="white"/>
</linearGradient>
<linearGradient id="paint20_linear_1_1903" x1="204.358" y1="102.125" x2="204.358" y2="281.167" gradientUnits="userSpaceOnUse">
<stop stop-color="white"/>
<stop offset="0.713985"/>
</linearGradient>
<linearGradient id="paint21_linear_1_1903" x1="204.358" y1="102.125" x2="204.358" y2="223.387" gradientUnits="userSpaceOnUse">
<stop stop-color="white"/>
<stop offset="1" stop-color="white"/>
</linearGradient>
<linearGradient id="paint22_linear_1_1903" x1="403.381" y1="102.133" x2="403.381" y2="281.188" gradientUnits="userSpaceOnUse">
<stop stop-color="white"/>
<stop offset="0.713985"/>
</linearGradient>
<linearGradient id="paint23_linear_1_1903" x1="403.381" y1="102.133" x2="403.381" y2="223.404" gradientUnits="userSpaceOnUse">
<stop stop-color="white"/>
<stop offset="1" stop-color="white"/>
</linearGradient>
<linearGradient id="paint24_linear_1_1903" x1="398.816" y1="149.578" x2="398.816" y2="189.557" gradientUnits="userSpaceOnUse">
<stop stop-color="white"/>
<stop offset="0.713985"/>
</linearGradient>
<linearGradient id="paint25_linear_1_1903" x1="398.816" y1="149.578" x2="398.816" y2="176.655" gradientUnits="userSpaceOnUse">
<stop stop-color="white"/>
<stop offset="1" stop-color="white"/>
</linearGradient>
<linearGradient id="paint26_linear_1_1903" x1="22.4836" y1="147.226" x2="22.4836" y2="193.443" gradientUnits="userSpaceOnUse">
<stop stop-color="white"/>
<stop offset="0.713985"/>
</linearGradient>
<linearGradient id="paint27_linear_1_1903" x1="22.4836" y1="147.226" x2="22.4836" y2="178.528" gradientUnits="userSpaceOnUse">
<stop stop-color="white"/>
<stop offset="1" stop-color="white"/>
</linearGradient>
<linearGradient id="paint28_linear_1_1903" x1="591.317" y1="130.128" x2="591.317" y2="176.345" gradientUnits="userSpaceOnUse">
<stop stop-color="white"/>
<stop offset="0.713985"/>
</linearGradient>
<linearGradient id="paint29_linear_1_1903" x1="591.317" y1="130.128" x2="591.317" y2="161.43" gradientUnits="userSpaceOnUse">
<stop stop-color="white"/>
<stop offset="1" stop-color="white"/>
</linearGradient>
<linearGradient id="paint30_linear_1_1903" x1="385.071" y1="235.518" x2="385.071" y2="264.187" gradientUnits="userSpaceOnUse">
<stop stop-color="white"/>
<stop offset="0.713985"/>
</linearGradient>
<linearGradient id="paint31_linear_1_1903" x1="385.071" y1="235.518" x2="385.071" y2="254.935" gradientUnits="userSpaceOnUse">
<stop stop-color="white"/>
<stop offset="1" stop-color="white"/>
</linearGradient>
<linearGradient id="paint32_linear_1_1903" x1="432.952" y1="235.518" x2="432.952" y2="264.187" gradientUnits="userSpaceOnUse">
<stop stop-color="white"/>
<stop offset="0.713985"/>
</linearGradient>
<linearGradient id="paint33_linear_1_1903" x1="432.952" y1="235.518" x2="432.952" y2="254.935" gradientUnits="userSpaceOnUse">
<stop stop-color="white"/>
<stop offset="1" stop-color="white"/>
</linearGradient>
<linearGradient id="paint34_linear_1_1903" x1="480.422" y1="235.514" x2="480.422" y2="264.189" gradientUnits="userSpaceOnUse">
<stop stop-color="white"/>
<stop offset="0.713985"/>
</linearGradient>
<linearGradient id="paint35_linear_1_1903" x1="480.422" y1="235.514" x2="480.422" y2="254.935" gradientUnits="userSpaceOnUse">
<stop stop-color="white"/>
<stop offset="1" stop-color="white"/>
</linearGradient>
<linearGradient id="paint36_linear_1_1903" x1="528.096" y1="235.514" x2="528.096" y2="264.189" gradientUnits="userSpaceOnUse">
<stop stop-color="white"/>
<stop offset="0.713985"/>
</linearGradient>
<linearGradient id="paint37_linear_1_1903" x1="528.096" y1="235.514" x2="528.096" y2="254.935" gradientUnits="userSpaceOnUse">
<stop stop-color="white"/>
<stop offset="1" stop-color="white"/>
</linearGradient>
<clipPath id="clip0_1_1903">
<rect width="603.792" height="292" fill="white"/>
</clipPath>
</defs>
</svg>
